<svg width="70" height="70" viewBox="0 0 70 70" fill="none" xmlns="http://www.w3.org/2000/svg">
<g clip-path="url(#clip0)">
<path d="M37.0547 0C32.5305 0 28.7149 3.81568 28.7149 8.33983C28.7149 12.864 32.5305 16.6797 37.0547 16.6797C41.5788 16.6797 45.2578 12.864 45.2578 8.33983C45.2578 3.81568 41.5788 0 37.0547 0Z" fill="#628A94"/>
<path d="M46.159 16.6797C43.9052 19.1788 40.6772 20.7812 37.0547 20.7812C33.4322 20.7812 30.0674 19.1788 27.8136 16.6797C25.8459 18.8616 24.6133 21.72 24.6133 24.8828V26.9336C24.6133 28.0671 25.5305 28.9844 26.6641 28.9844H47.3086C48.4421 28.9844 49.3593 28.0671 49.3593 26.9336V24.8828C49.3593 21.72 48.1267 18.8616 46.159 16.6797Z" fill="#03242C"/>
<path d="M19.8168 62.9458L9.3659 41.993C8.35678 39.9697 5.90077 39.1446 3.87501 40.1482L1.14351 41.5013C0.126465 42.0057 -0.287382 43.2418 0.220253 44.257L12.5249 68.8664C13.0309 69.8812 14.2618 70.2851 15.2706 69.7876L17.967 68.4517C20.0007 67.4444 20.8296 64.9767 19.8168 62.9458Z" fill="#03242C"/>
<path d="M68.3223 33.8656C66.6406 32.6351 64.3027 32.8812 62.9083 34.3988L51.6974 48.1801C50.9181 49.0004 49.4415 49.4926 48.6622 49.4926H39.1055C37.9569 49.4926 37.0547 48.5904 37.0547 47.4418C37.0547 46.2932 37.9569 45.391 39.1055 45.391C41.8521 45.391 44.893 45.391 47.3086 45.391C49.5644 45.391 51.4101 43.5453 51.4101 41.2895C51.4101 39.0336 49.5644 37.1879 47.3086 37.1879C37.6773 37.1879 46.8642 37.1879 36.5625 37.1879C35.5404 37.1879 35.0307 36.5397 34.2246 35.8342C31.0515 32.9789 26.3019 31.6032 21.4935 32.7177C18.8237 33.3365 17.0232 34.4151 15.1972 35.8613L15.1364 35.8119L12.1701 38.4225L23.8273 61.7973H27.2792H47.3086C51.164 61.7973 54.8556 59.9516 57.1524 56.8754L69.1835 39.6488C70.537 37.844 70.1679 35.2193 68.3223 33.8656Z" fill="#628A94"/>
</g>
<defs>
<clipPath id="clip0">
<rect width="70" height="70" fill="white"/>
</clipPath>
</defs>
</svg>
