<svg width="70" height="70" viewBox="0 0 70 70" fill="none" xmlns="http://www.w3.org/2000/svg">
<g clip-path="url(#clip0)">
<path d="M44.2271 19.8545V20.1139C44.2271 22.7006 42.3824 24.8661 39.9392 25.3624C40.176 26.729 40.9338 27.9536 42.1207 28.7262C43.5547 29.6605 45.3434 29.8005 46.9026 29.1075L50.7638 27.3937L46.4397 21.0039C45.9262 20.2425 45.0922 19.8726 44.2398 19.8545H44.2271Z" fill="#03242C"/>
<path d="M30.2094 33.5901L28.5238 41.5184L35.3644 45.3546L48.0916 41.953C48.3579 41.8826 48.6299 41.8439 48.9019 41.8005L47.467 35.0432L46.6499 31.2003C46.0593 31.3574 45.4606 31.4652 44.8586 31.4652C43.5354 31.4652 42.222 31.0853 41.0725 30.3386C39.3427 29.2143 38.2753 27.3969 38.0195 25.3853C35.4703 24.9743 33.513 22.7768 33.513 20.1138V19.851H33.127C32.1883 19.8715 31.2802 20.3349 30.7932 21.2167L21.7301 37.7085L26.4814 40.3723L30.2094 33.5901Z" fill="#03242C"/>
<path d="M42.3049 19.8545L40.7757 19.8533L35.435 19.8522V20.1139C35.435 22.0075 36.9758 23.5485 38.8705 23.5485C40.7641 23.5485 42.3049 22.0075 42.3049 20.1139V19.8545Z" fill="#03242C"/>
<path d="M66.3644 49.5527L51.8834 44.6412C50.8855 44.3021 49.8055 44.2655 48.7823 44.5399L35.0048 48.2201L18.3834 38.9011C15.8046 37.4501 12.5408 38.3729 11.0957 40.9519C9.64931 43.5305 10.5677 46.7919 13.1463 48.2384L31.6659 58.6225C32.8826 59.3054 34.3187 59.4886 35.666 59.1243L49.9797 55.2996L62.9266 59.6912C63.4956 59.8847 64.0759 59.9767 64.6462 59.9767C66.8766 59.9767 68.958 58.5713 69.7148 56.341C70.6649 53.5413 69.1638 50.5029 66.3644 49.5527Z" fill="#03242C"/>
<path d="M8.23247 38.6701C8.68533 38.6701 9.12461 38.6119 9.54899 38.5186C11.1126 38.1739 12.4512 37.2372 13.3125 35.9479C13.9587 34.9784 14.3388 33.8152 14.3388 32.5634C14.3388 29.1882 11.6043 26.4547 8.23247 26.4547C4.85832 26.4547 2.12366 29.1884 2.12366 32.5634C2.12366 35.9353 4.85818 38.6701 8.23247 38.6701Z" fill="#628A94"/>
<path d="M65.3143 61.2866H59.2966H37.9433H31.2486L9.91012 49.011L5.01442 46.1944C3.4089 45.2715 1.36718 45.8234 0.446718 47.4268C-0.475059 49.028 0.0768095 51.0728 1.67794 51.9945L28.6871 67.5316C29.1944 67.8241 29.7692 67.9775 30.3553 67.9775H65.3143C67.1625 67.9775 68.6598 66.4802 68.6598 64.632C68.6598 63.6191 68.2003 62.7226 67.4889 62.1091C66.9029 61.6029 66.1496 61.2866 65.3143 61.2866Z" fill="#628A94"/>
<path d="M53.0193 26.3922C53.1409 25.4657 53.9 24.7421 54.8594 24.7421C55.9007 24.7421 56.7463 25.5853 56.7463 26.6287C56.7463 27.67 55.9007 28.5155 54.8594 28.5155C54.4578 28.5155 54.1061 28.3631 53.801 28.1491L51.8961 28.9958L47.6832 30.8642C47.3794 30.9996 47.0609 31.0782 46.7456 31.1681L48.5015 33.7652C49.0249 34.5389 49.8807 34.9611 50.7582 34.9611C51.2099 34.9611 51.6641 34.8497 52.0863 34.6153L59.275 30.5936C60.5883 29.8608 61.0549 28.2017 60.322 26.8884C59.9236 26.1759 59.2466 25.7413 58.5057 25.5842C58.3179 24.9298 57.9708 24.3471 57.494 23.8875C56.8091 23.2286 55.8838 22.819 54.8595 22.819C53.2335 22.819 51.8542 23.8453 51.3067 25.2791C51.1464 25.7014 51.0484 26.1531 51.0484 26.6287C51.0484 26.8383 51.078 27.0397 51.1111 27.2401L53.0193 26.3922Z" fill="#03242C"/>
<path d="M35.435 17.6284C36.3896 18.1974 37.4913 18.5469 38.6839 18.5469C40.0312 18.5469 41.2761 18.1225 42.305 17.409C43.1063 16.8536 43.7513 16.1094 44.2271 15.2524C44.7347 14.3387 45.05 13.3008 45.05 12.181C45.05 11.3879 44.8872 10.6357 44.6209 9.93689C42.6795 10.4263 40.6881 10.6958 38.684 10.6958C36.6822 10.6958 34.6898 10.4261 32.7461 9.93689C32.4809 10.6368 32.3193 11.3879 32.3193 12.181C32.3193 13.5602 32.7675 14.8303 33.513 15.8715C34.0227 16.585 34.6796 17.1768 35.435 17.6284Z" fill="#628A94"/>
<path d="M32.8337 8.20145C34.7499 8.71579 36.7165 8.97296 38.684 8.97296C40.6518 8.97296 42.6192 8.71579 44.5346 8.20145C44.7757 8.13661 44.9226 7.88966 44.8633 7.64608C44.5231 6.22705 44.1793 3.8122 43.8379 2.37711C43.8094 2.25546 43.7333 2.15177 43.6263 2.08693C43.5535 2.04371 43.4715 2.02209 43.3897 2.02209C43.3498 2.02209 43.3088 2.02662 43.2713 2.03684C41.7668 2.43172 40.225 2.62858 38.6828 2.62858C37.1408 2.62858 35.6002 2.43172 34.0969 2.03684C34.0582 2.02662 34.0183 2.02209 33.9796 2.02209C33.8964 2.02209 33.8146 2.04371 33.7417 2.08693C33.6348 2.15177 33.5586 2.25546 33.5301 2.37594C33.1875 3.81103 32.844 6.2269 32.5038 7.6471C32.4456 7.88966 32.5901 8.13661 32.8337 8.20145ZM37.0669 4.80232H37.8225V4.04673H39.5433V4.80232H40.3V6.52408H39.5433V7.27865H37.8225V6.52408H37.0669V4.80232Z" fill="#03242C"/>
</g>
<defs>
<clipPath id="clip0">
<rect width="70" height="70" fill="white"/>
</clipPath>
</defs>
</svg>
