<svg width="80" height="76" viewBox="0 0 80 76" fill="none" xmlns="http://www.w3.org/2000/svg">
<path d="M1.67481 27.0015C2.79108 25.7728 4.13798 25.1584 5.71599 25.1584H18.5722C18.8696 25.1584 19.1897 25.0848 19.5321 24.9378C19.8746 24.79 20.2253 24.5609 20.581 24.2496C20.9385 23.9377 21.2735 23.6432 21.586 23.3646C21.8984 23.086 22.2564 22.7182 22.6573 22.2592C23.059 21.8004 23.3646 21.4483 23.5724 21.2027C23.7811 20.9574 24.0641 20.6051 24.4211 20.146C24.7786 19.6878 24.9871 19.4088 25.0472 19.3107C26.9798 16.8863 28.4696 14.7734 29.511 12.972C29.8985 12.2838 30.389 11.2691 30.9841 9.92531C31.5792 8.58274 32.1298 7.40367 32.6359 6.38741C33.142 5.37183 33.7445 4.3399 34.4444 3.2918C35.1427 2.24404 35.9619 1.4331 36.8988 0.859996C37.8363 0.286551 38.8707 0 40.0013 0C43.7213 0 46.7942 1.09698 49.22 3.29163C51.6456 5.48611 52.8582 8.58206 52.8582 12.5781C52.8582 14.8065 52.5313 16.9022 51.8763 18.8676H68.5717C71.6664 18.8676 74.3453 20.1126 76.6073 22.6022C78.8692 25.0918 80 28.0238 80 31.3982C80 34.8375 78.8769 37.8018 76.6298 40.2912C74.3825 42.7814 71.6967 44.0251 68.5717 44.0251H61.0272C60.9076 46.056 60.357 48.0047 59.3751 49.8723C59.4643 50.5604 59.5094 51.2648 59.5094 51.9844C59.5094 55.3261 58.6012 58.2413 56.786 60.7304L56.8309 60.9765C56.8606 65.5627 55.5666 69.1256 52.9472 71.6639C50.3281 74.2024 46.9057 75.4717 42.6795 75.4717C38.8998 75.4717 34.1819 74.3415 28.5281 72.0809C23.6468 70.1491 20.3283 69.1815 18.5721 69.1815H5.71583C4.1372 69.1815 2.79045 68.5673 1.67465 67.3387C0.559479 66.11 0.000327349 64.6282 0.000327349 62.8919V31.4457C0.00110916 29.7093 0.559634 28.2268 1.67481 27.0015ZM17.1439 62.8932H18.5721C20.7156 62.8932 23.1996 63.4173 26.026 64.4633C28.8533 65.5118 31.7403 66.5611 34.6871 67.6083C37.6334 68.6566 40.3567 69.1803 42.8564 69.1803C45.446 69.1803 47.4625 68.5095 48.9057 67.1655C50.3497 65.8219 51.0713 63.7589 51.0713 60.9741C51.0713 59.9259 51.0117 59.0089 50.8926 58.2232C51.7851 57.6997 52.492 56.8385 53.0132 55.6443C53.5343 54.4487 53.7945 53.2448 53.7945 52.0327C53.7945 50.822 53.5267 49.6911 52.9908 48.6428C54.5682 47.0042 55.3567 45.0566 55.3567 42.796C55.3567 41.978 55.2077 41.0681 54.9103 40.0697C54.6127 39.0696 54.24 38.2922 53.794 37.7355H68.5712C70.119 37.7355 71.4583 37.1123 72.5892 35.8682C73.72 34.6234 74.2854 33.149 74.2854 31.4457C74.2854 29.7746 73.7055 28.3096 72.5448 27.0478C71.3841 25.7868 70.0593 25.156 68.5717 25.156H42.8579C42.8579 24.501 43.081 23.7069 43.5276 22.7731C43.9737 21.8401 44.4652 20.9385 45.0005 20.0706C45.5359 19.2027 46.0274 18.0886 46.4733 16.7294C46.9199 15.3701 47.143 13.9861 47.143 12.5772C47.143 10.3829 46.4811 8.78617 45.1567 7.7866C43.8324 6.78806 42.1135 6.28862 40.0006 6.28862C39.7623 6.28862 39.4866 6.47673 39.1743 6.8538C38.8619 7.23071 38.5419 7.73015 38.2149 8.35247C37.8869 8.97496 37.5893 9.55633 37.3218 10.0967C37.0542 10.6376 36.7786 11.2269 36.4957 11.8663C36.2125 12.505 36.0563 12.8734 36.0274 12.9717C35.3131 14.4783 34.7474 15.5923 34.3306 16.3129C33.1406 18.4093 31.4732 20.7843 29.3306 23.4372C29.2718 23.5023 29.2042 23.5844 29.13 23.6828C29.0555 23.7809 28.9963 23.8546 28.9517 23.904C28.9068 23.9529 28.8543 24.0265 28.7955 24.125C27.9319 25.2063 27.203 26.0899 26.608 26.7779C26.013 27.466 25.2681 28.22 24.3756 29.0383C23.4831 29.8579 22.5543 30.4633 21.5856 30.8564C20.6181 31.2498 19.6139 31.447 18.5721 31.447H17.1443V62.8932H17.1439V62.8932ZM6.56331 61.9591C7.12887 62.5821 7.79826 62.8932 8.57225 62.8932C9.34593 62.8932 10.0158 62.5821 10.581 61.9591C11.1471 61.3371 11.4296 60.5998 11.4296 59.7479C11.4296 58.8963 11.1471 58.1591 10.581 57.5369C10.0159 56.9151 9.34609 56.6029 8.57225 56.6029C7.79842 56.6029 7.12903 56.9149 6.56331 57.5369C5.99838 58.1589 5.71583 58.8962 5.71583 59.7479C5.71583 60.5998 5.99838 61.3371 6.56331 61.9591Z" fill="#628A94"/>
<path fill-rule="evenodd" clip-rule="evenodd" d="M1.67482 27.0015C2.79109 25.7729 4.13799 25.1584 5.716 25.1584H17.1443V31.4471L17.1439 62.8933V69.1803L5.71584 69.1815C4.13721 69.1815 2.79046 68.5673 1.67466 67.3387C0.559491 66.11 0.00033911 64.6282 0.00033911 62.8919C0.00033911 62.8919 -0.0004427 33.182 0.00033911 31.4457C0.00112092 29.7093 0.559646 28.2269 1.67482 27.0015ZM8.57226 62.8933C7.79827 62.8933 7.12889 62.5821 6.56332 61.9591C5.99839 61.3371 5.71584 60.5998 5.71584 59.7479C5.71584 58.8962 5.99839 58.1589 6.56332 57.5369C7.12904 56.9149 7.79843 56.6029 8.57226 56.6029C9.3461 56.6029 10.016 56.9151 10.581 57.5369C11.1471 58.1591 11.4296 58.8964 11.4296 59.7479C11.4296 60.5998 11.1471 61.3371 10.581 61.9591C10.0158 62.5821 9.34594 62.8933 8.57226 62.8933Z" fill="#03242C"/>
</svg>
