<svg width="70" height="70" viewBox="0 0 70 70" fill="none" xmlns="http://www.w3.org/2000/svg">
<path d="M70 47.373C70 38.6866 65.0167 30.9342 57.5533 27.1632C57.3215 43.8183 43.8184 57.3214 27.1632 57.5532C30.9342 65.0167 38.6866 70 47.373 70C51.4458 70 55.4063 68.9153 58.8863 66.8544L69.9012 69.9012L66.8544 58.8862C68.9153 55.4063 70 51.4457 70 47.373Z" fill="#628A94"/>
<path d="M53.457 26.7285C53.457 11.9901 41.4669 0 26.7285 0C11.9901 0 0 11.9901 0 26.7285C0 31.5318 1.27853 36.2086 3.70636 40.3144L0.0982666 53.3582L13.1426 49.7507C17.2485 52.1785 21.9252 53.457 26.7285 53.457C41.4669 53.457 53.457 41.4669 53.457 26.7285ZM22.627 20.5078H18.5254C18.5254 15.9843 22.205 12.3047 26.7285 12.3047C31.252 12.3047 34.9316 15.9843 34.9316 20.5078C34.9316 22.8037 33.9597 25.0105 32.264 26.5614L28.7793 29.7507V32.9492H24.6777V27.9446L29.4949 23.5354C30.3558 22.7477 30.8301 21.6726 30.8301 20.5078C30.8301 18.2461 28.9902 16.4062 26.7285 16.4062C24.4668 16.4062 22.627 18.2461 22.627 20.5078ZM24.6777 37.0508H28.7793V41.1523H24.6777V37.0508Z" fill="#03242C"/>
</svg>
