<svg width="60" height="60" viewBox="0 0 60 60" fill="none" xmlns="http://www.w3.org/2000/svg">
<path d="M30.0052 0C18.7493 0 9.61975 9.06506 9.61975 20.2459C9.61975 25.969 15.2329 36.2166 15.2329 36.2166L29.2552 60L43.8828 36.4922C43.8828 36.4922 50.382 26.7155 50.382 20.2459C50.3803 9.06506 41.2576 0 30.0052 0ZM29.9093 31.4007C23.4642 31.4007 18.2435 26.1783 18.2435 19.7261C18.2435 13.2845 23.4642 8.06384 29.9093 8.06384C36.351 8.06384 41.5786 13.2827 41.5786 19.7261C41.5786 26.1783 36.351 31.4007 29.9093 31.4007Z" fill="#FF850C"/>
<path d="M32.3373 12.6165H27.7307V17.865H22.367V22.4787H27.7307V27.8825H32.3373V22.4787H37.6347V17.865H32.3373V12.6165Z" fill="#FF0000"/>
</svg>
