<svg width="252" height="86" viewBox="0 0 252 86" fill="none" xmlns="http://www.w3.org/2000/svg">
<g clip-path="url(#clip0)">
<path d="M45.083 6.20245C42.1888 7.38152 40.1543 10.1697 40.1543 13.4223C40.1543 16.6749 42.1888 19.463 45.083 20.6421C47.9773 19.463 50.0116 16.6749 50.0116 13.4223C50.0116 10.1697 47.9771 7.38152 45.083 6.20245Z" fill="#FF850C"/>
<path d="M63.1125 21.6413C62.6785 24.4184 60.232 26.47 57.3542 26.47H55.7346L55.2943 33.9177L57.0801 35.642C59.0628 37.5565 61.4756 38.9493 64.0945 39.7327C67.5221 38.7077 70.5776 36.6436 72.7764 33.7747L74.4327 31.6137L74.4337 31.6118C74.7267 31.3959 75.0079 31.1658 75.2773 30.9231L75.286 30.917L75.2881 30.913C77.4478 28.9622 78.8089 26.1828 78.8422 23.0917L79.077 22.2542C80.5711 20.7512 81.6414 18.8458 82.1038 16.7209C81.5135 16.7808 80.9201 16.8126 80.3255 16.8126H70.3125H68.8707C65.9929 16.8126 63.5464 18.8642 63.1125 21.6413Z" fill="#EEF19B"/>
<path d="M38.2786 26.4702H36.659C33.7811 26.4702 31.3347 24.4186 30.9007 21.6415C30.4668 18.8644 28.0203 16.8128 25.1425 16.8128H14.8786C15.3516 18.9007 16.4116 20.7731 17.884 22.2544L18.1188 23.0918C18.1521 26.1832 19.5133 28.9625 21.6729 30.9132L21.675 30.9172L21.6837 30.9233C21.9531 31.1659 22.2341 31.3961 22.5273 31.612L22.5283 31.6139L24.1847 33.7749C26.0632 36.2257 28.5673 38.0885 31.3939 39.2189C33.4429 38.3992 35.3287 37.1913 36.9331 35.6421L38.7188 33.9177L38.2786 26.4702Z" fill="#EEF19B"/>
<path d="M45.2812 20.734V68.7778C45.2812 74.119 44.1833 79.4057 42.0525 84.3252L42.0208 84.3983C39.8422 79.4317 38.7188 74.0852 38.7188 68.6825V20.734H45.2812Z" fill="#067B96"/>
<path d="M80.4828 23.1269C82.6647 20.8189 84.0006 17.738 84.0006 14.3573C84.0006 13.863 83.7669 13.3963 83.3672 13.0928C82.9672 12.7893 82.4463 12.6832 81.9558 12.805L74.1504 14.7424C72.8969 15.0533 71.6059 15.2111 70.3131 15.2111H58.8585C55.1427 15.2111 52.0388 17.8137 51.4783 21.3999C51.1643 23.4099 49.4244 24.8686 47.3418 24.8686H46.9227V21.5231C49.7522 19.8786 51.6529 16.8637 51.6529 13.4223C51.6531 8.22683 47.3231 4 42.0008 4C36.6785 4 32.3487 8.22683 32.3487 13.4223C32.3487 16.8637 34.2494 19.8786 37.079 21.5231V24.8686H36.6598C34.5772 24.8686 32.8373 23.4099 32.5233 21.3999C31.9629 17.8137 28.859 15.2111 25.1431 15.2111H13.6885C12.3957 15.2111 11.1047 15.0535 9.85141 14.7424L2.04584 12.8052C1.55563 12.6835 1.0344 12.7895 0.634419 13.093C0.234765 13.3963 0.000976562 13.863 0.000976562 14.3573C0.000976562 17.738 1.3371 20.8189 3.51879 23.1271C3.5667 27.0139 5.45324 30.4745 8.36748 32.7209L9.9108 34.7343C13.4298 39.3257 19.0379 42.0669 24.9123 42.0669C29.4184 42.0669 33.6888 40.5206 37.079 37.687V43.3986H35.6075C29.7575 43.3986 24.9981 48.0447 24.9981 53.7554C24.9981 55.5004 25.4517 57.2263 26.3096 58.7465C26.6085 59.2763 27.1695 59.5756 27.7481 59.5756C28.0159 59.5756 28.2874 59.5115 28.5382 59.3765C29.332 58.9497 29.6209 57.9757 29.1836 57.201C28.5922 56.1528 28.2793 54.9614 28.2793 53.7554C28.2793 49.8108 31.5666 46.6017 35.6075 46.6017H37.079V60.9089H33.2235C28.8964 60.9089 25.3759 64.3455 25.3759 68.5698C25.3759 72.7939 28.8964 76.2305 33.2235 76.2305H37.7851C38.3539 79.2379 39.2636 82.1793 40.5136 85.029C40.772 85.6182 41.3652 86 42.0216 86H42.0246C42.6822 85.9989 43.2756 85.6147 43.5322 85.0235L43.5645 84.9491C44.7881 82.1239 45.6783 79.2091 46.2343 76.2305H48.0985C49.9531 76.2305 51.4618 77.7033 51.4618 79.5137C51.4618 81.3241 49.9531 82.7969 48.0985 82.7969H47.9871C47.0812 82.7969 46.3465 83.5141 46.3465 84.3984C46.3465 85.2828 47.0812 86 47.9871 86H48.0985C51.7623 86 54.743 83.0903 54.743 79.5137C54.743 75.9371 51.7623 73.0274 48.0985 73.0274H46.7009C46.8479 71.622 46.9227 70.2048 46.9227 68.778V64.112H48.0165C53.8664 64.112 58.6257 59.4661 58.6257 53.7554C58.6257 48.0447 53.8664 43.3986 48.0165 43.3986H46.9227V37.687C50.313 40.5208 54.5832 42.0669 59.0893 42.0669C64.9636 42.0669 70.5714 39.3258 74.0908 34.7343L75.6341 32.7209C78.5485 30.4745 80.4349 27.0137 80.4828 23.1269ZM42.0008 7.20311C45.5137 7.20311 48.3717 9.99302 48.3717 13.4223C48.3717 16.8515 45.5139 19.6414 42.0008 19.6414C38.4878 19.6414 35.63 16.8515 35.63 13.4223C35.63 9.99302 38.4879 7.20311 42.0008 7.20311ZM35.7801 34.5032C32.8678 37.3153 29.0083 38.8638 24.9123 38.8638C21.2631 38.8638 17.7389 37.581 14.9811 35.33C15.3929 35.3694 15.8101 35.3907 16.2324 35.3907H18.9798C19.8858 35.3907 20.6204 34.6735 20.6204 33.7891C20.6204 32.9047 19.8858 32.1876 18.9798 32.1876H16.2324C12.0802 32.1876 8.54811 29.5543 7.28992 25.9094C9.08557 26.7977 11.1131 27.3018 13.26 27.3022L16.6533 27.3026H16.6534C17.5592 27.3026 18.2939 26.5856 18.294 25.7012C18.2942 24.8169 17.5597 24.0997 16.6536 24.0995L13.2603 24.0991C8.50365 24.0984 4.51366 20.8317 3.5201 16.476L9.04325 17.8467C10.5605 18.2234 12.1233 18.4142 13.6885 18.4142H25.1431C27.2259 18.4142 28.9656 19.8729 29.2796 21.8828C29.8401 25.469 32.9439 28.0717 36.6598 28.0717H37.079V33.2492L35.7801 34.5032ZM40.3602 22.7057C40.8937 22.7954 41.4414 22.8447 42.0008 22.8447C42.5603 22.8447 43.1079 22.7954 43.6414 22.7057V60.9087H40.3602V22.7057ZM33.2235 73.0272C30.7056 73.0272 28.6572 71.0275 28.6572 68.5696C28.6572 66.1116 30.7056 64.1119 33.2235 64.1119H37.079V68.6825C37.079 70.1419 37.1575 71.5908 37.3111 73.0272H33.2235ZM43.6414 68.7778C43.6414 72.5069 43.0956 76.1666 42.0154 79.7025C40.9157 76.1373 40.3602 72.4464 40.3602 68.6825V64.1119H43.6414V68.7778ZM48.0165 46.6016C52.0571 46.6016 55.3445 49.8106 55.3445 53.7552C55.3445 57.6997 52.0571 60.9087 48.0165 60.9087H46.9227V46.6016H48.0165ZM59.0895 38.8638C54.9935 38.8638 51.134 37.3153 48.2217 34.5034L46.9227 33.2492V28.0717H47.3418C51.0577 28.0717 54.1616 25.469 54.722 21.8828C55.036 19.8729 56.7757 18.4142 58.8585 18.4142H70.3131C71.8783 18.4142 73.4411 18.2234 74.9585 17.8467L80.4815 16.476C79.488 20.8316 75.498 24.0984 70.7413 24.0991L67.3484 24.0995C66.4423 24.0997 65.7078 24.8169 65.7079 25.7012C65.7081 26.5858 66.4427 27.3028 67.3487 27.3026L70.742 27.3022C72.8889 27.3018 74.9164 26.7978 76.712 25.9094C75.4538 29.5543 71.9216 32.1876 67.7695 32.1876H65.022C64.116 32.1876 63.3814 32.9047 63.3814 33.7891C63.3814 34.6735 64.116 35.3907 65.022 35.3907H67.7693C68.1916 35.3907 68.6087 35.3694 69.0205 35.33C66.2626 37.581 62.7386 38.8638 59.0895 38.8638Z" fill="black"/>
<path d="M35.4376 82.7968C35.0061 82.7968 34.5828 82.968 34.2776 83.266C33.9725 83.5641 33.7969 83.9771 33.7969 84.3983C33.7969 84.8195 33.9723 85.2327 34.2776 85.5304C34.5828 85.8283 35.0061 85.9999 35.4376 85.9999C35.869 85.9999 36.2923 85.8285 36.5973 85.5304C36.9025 85.2327 37.0782 84.8195 37.0782 84.3983C37.0782 83.9771 36.9026 83.5639 36.5973 83.266C36.2923 82.968 35.869 82.7968 35.4376 82.7968Z" fill="black"/>
</g>
<path d="M98.822 14.2H109.634C112.218 14.2 114.496 14.6987 116.468 15.696C118.463 16.6707 120.004 18.0533 121.092 19.844C122.203 21.6347 122.758 23.72 122.758 26.1C122.758 28.48 122.203 30.5653 121.092 32.356C120.004 34.1467 118.463 35.5407 116.468 36.538C114.496 37.5127 112.218 38 109.634 38H98.822V14.2ZM109.362 33.478C111.742 33.478 113.635 32.8207 115.04 31.506C116.468 30.1687 117.182 28.3667 117.182 26.1C117.182 23.8333 116.468 22.0427 115.04 20.728C113.635 19.3907 111.742 18.722 109.362 18.722H104.33V33.478H109.362ZM135.242 38.272C133.315 38.272 131.581 37.8753 130.04 37.082C128.521 36.266 127.331 35.144 126.47 33.716C125.609 32.288 125.178 30.6673 125.178 28.854C125.178 27.0407 125.609 25.42 126.47 23.992C127.331 22.564 128.521 21.4533 130.04 20.66C131.581 19.844 133.315 19.436 135.242 19.436C137.169 19.436 138.891 19.844 140.41 20.66C141.929 21.4533 143.119 22.564 143.98 23.992C144.841 25.42 145.272 27.0407 145.272 28.854C145.272 30.6673 144.841 32.288 143.98 33.716C143.119 35.144 141.929 36.266 140.41 37.082C138.891 37.8753 137.169 38.272 135.242 38.272ZM135.242 33.92C136.602 33.92 137.713 33.4667 138.574 32.56C139.458 31.6307 139.9 30.3953 139.9 28.854C139.9 27.3127 139.458 26.0887 138.574 25.182C137.713 24.2527 136.602 23.788 135.242 23.788C133.882 23.788 132.76 24.2527 131.876 25.182C130.992 26.0887 130.55 27.3127 130.55 28.854C130.55 30.3953 130.992 31.6307 131.876 32.56C132.76 33.4667 133.882 33.92 135.242 33.92ZM157.657 38.272C155.708 38.272 153.951 37.8753 152.387 37.082C150.846 36.266 149.633 35.144 148.749 33.716C147.888 32.288 147.457 30.6673 147.457 28.854C147.457 27.0407 147.888 25.42 148.749 23.992C149.633 22.564 150.846 21.4533 152.387 20.66C153.951 19.844 155.708 19.436 157.657 19.436C159.584 19.436 161.261 19.844 162.689 20.66C164.14 21.4533 165.194 22.598 165.851 24.094L161.737 26.304C160.785 24.6267 159.414 23.788 157.623 23.788C156.24 23.788 155.096 24.2413 154.189 25.148C153.282 26.0547 152.829 27.29 152.829 28.854C152.829 30.418 153.282 31.6533 154.189 32.56C155.096 33.4667 156.24 33.92 157.623 33.92C159.436 33.92 160.808 33.0813 161.737 31.404L165.851 33.648C165.194 35.0987 164.14 36.232 162.689 37.048C161.261 37.864 159.584 38.272 157.657 38.272ZM180.969 37.116C180.447 37.5013 179.801 37.796 179.031 38C178.283 38.1813 177.489 38.272 176.651 38.272C174.475 38.272 172.786 37.7167 171.585 36.606C170.406 35.4953 169.817 33.8633 169.817 31.71V24.196H166.995V20.116H169.817V15.662H175.121V20.116H179.677V24.196H175.121V31.642C175.121 32.4127 175.313 33.0133 175.699 33.444C176.107 33.852 176.673 34.056 177.399 34.056C178.237 34.056 178.951 33.8293 179.541 33.376L180.969 37.116ZM192.086 38.272C190.159 38.272 188.425 37.8753 186.884 37.082C185.365 36.266 184.175 35.144 183.314 33.716C182.452 32.288 182.022 30.6673 182.022 28.854C182.022 27.0407 182.452 25.42 183.314 23.992C184.175 22.564 185.365 21.4533 186.884 20.66C188.425 19.844 190.159 19.436 192.086 19.436C194.012 19.436 195.735 19.844 197.254 20.66C198.772 21.4533 199.962 22.564 200.824 23.992C201.685 25.42 202.116 27.0407 202.116 28.854C202.116 30.6673 201.685 32.288 200.824 33.716C199.962 35.144 198.772 36.266 197.254 37.082C195.735 37.8753 194.012 38.272 192.086 38.272ZM192.086 33.92C193.446 33.92 194.556 33.4667 195.418 32.56C196.302 31.6307 196.744 30.3953 196.744 28.854C196.744 27.3127 196.302 26.0887 195.418 25.182C194.556 24.2527 193.446 23.788 192.086 23.788C190.726 23.788 189.604 24.2527 188.72 25.182C187.836 26.0887 187.394 27.3127 187.394 28.854C187.394 30.3953 187.836 31.6307 188.72 32.56C189.604 33.4667 190.726 33.92 192.086 33.92ZM210.727 22.122C211.362 21.238 212.212 20.5693 213.277 20.116C214.365 19.6627 215.612 19.436 217.017 19.436V24.332C216.428 24.2867 216.031 24.264 215.827 24.264C214.308 24.264 213.118 24.6947 212.257 25.556C211.396 26.3947 210.965 27.664 210.965 29.364V38H205.661V19.708H210.727V22.122ZM106.642 72.408C104.761 72.408 102.936 72.1587 101.168 71.66C99.4227 71.1387 98.0173 70.47 96.952 69.654L98.822 65.506C99.842 66.254 101.055 66.8547 102.46 67.308C103.865 67.7613 105.271 67.988 106.676 67.988C108.24 67.988 109.396 67.7613 110.144 67.308C110.892 66.832 111.266 66.2087 111.266 65.438C111.266 64.8713 111.039 64.4067 110.586 64.044C110.155 63.6587 109.589 63.3527 108.886 63.126C108.206 62.8993 107.277 62.65 106.098 62.378C104.285 61.9473 102.8 61.5167 101.644 61.086C100.488 60.6553 99.4907 59.964 98.652 59.012C97.836 58.06 97.428 56.7907 97.428 55.204C97.428 53.8213 97.802 52.5747 98.55 51.464C99.298 50.3307 100.42 49.4353 101.916 48.778C103.435 48.1207 105.282 47.792 107.458 47.792C108.977 47.792 110.461 47.9733 111.912 48.336C113.363 48.6987 114.632 49.22 115.72 49.9L114.02 54.082C111.821 52.8353 109.623 52.212 107.424 52.212C105.883 52.212 104.738 52.4613 103.99 52.96C103.265 53.4587 102.902 54.116 102.902 54.932C102.902 55.748 103.321 56.36 104.16 56.768C105.021 57.1533 106.325 57.5387 108.07 57.924C109.883 58.3547 111.368 58.7853 112.524 59.216C113.68 59.6467 114.666 60.3267 115.482 61.256C116.321 62.1853 116.74 63.4433 116.74 65.03C116.74 66.39 116.355 67.6367 115.584 68.77C114.836 69.8807 113.703 70.7647 112.184 71.422C110.665 72.0793 108.818 72.408 106.642 72.408ZM131.248 53.436C133.514 53.436 135.339 54.116 136.722 55.476C138.127 56.836 138.83 58.8533 138.83 61.528V72H133.526V62.344C133.526 60.8933 133.208 59.8167 132.574 59.114C131.939 58.3887 131.021 58.026 129.82 58.026C128.482 58.026 127.417 58.4453 126.624 59.284C125.83 60.1 125.434 61.324 125.434 62.956V72H120.13V46.772H125.434V55.612C126.136 54.9093 126.986 54.3767 127.984 54.014C128.981 53.6287 130.069 53.436 131.248 53.436ZM151.015 53.436C153.849 53.436 156.025 54.116 157.543 55.476C159.062 56.8133 159.821 58.842 159.821 61.562V72H154.857V69.722C153.86 71.422 152.001 72.272 149.281 72.272C147.876 72.272 146.652 72.034 145.609 71.558C144.589 71.082 143.807 70.4247 143.263 69.586C142.719 68.7473 142.447 67.7953 142.447 66.73C142.447 65.03 143.082 63.6927 144.351 62.718C145.643 61.7433 147.627 61.256 150.301 61.256H154.517C154.517 60.1 154.166 59.216 153.463 58.604C152.761 57.9693 151.707 57.652 150.301 57.652C149.327 57.652 148.363 57.8107 147.411 58.128C146.482 58.4227 145.689 58.8307 145.031 59.352L143.127 55.646C144.125 54.9433 145.315 54.3993 146.697 54.014C148.103 53.6287 149.542 53.436 151.015 53.436ZM150.607 68.702C151.514 68.702 152.319 68.498 153.021 68.09C153.724 67.6593 154.223 67.036 154.517 66.22V64.35H150.879C148.703 64.35 147.615 65.064 147.615 66.492C147.615 67.172 147.876 67.716 148.397 68.124C148.941 68.5093 149.678 68.702 150.607 68.702ZM188.048 53.436C190.337 53.436 192.15 54.116 193.488 55.476C194.848 56.8133 195.528 58.8307 195.528 61.528V72H190.224V62.344C190.224 60.8933 189.918 59.8167 189.306 59.114C188.716 58.3887 187.866 58.026 186.756 58.026C185.509 58.026 184.523 58.434 183.798 59.25C183.072 60.0433 182.71 61.2333 182.71 62.82V72H177.406V62.344C177.406 59.4653 176.25 58.026 173.938 58.026C172.714 58.026 171.739 58.434 171.014 59.25C170.288 60.0433 169.926 61.2333 169.926 62.82V72H164.622V53.708H169.688V55.816C170.368 55.0453 171.195 54.456 172.17 54.048C173.167 53.64 174.255 53.436 175.434 53.436C176.726 53.436 177.893 53.6967 178.936 54.218C179.978 54.7167 180.817 55.4533 181.452 56.428C182.2 55.476 183.14 54.7393 184.274 54.218C185.43 53.6967 186.688 53.436 188.048 53.436ZM205.348 56.122C205.983 55.238 206.833 54.5693 207.898 54.116C208.986 53.6627 210.233 53.436 211.638 53.436V58.332C211.049 58.2867 210.652 58.264 210.448 58.264C208.929 58.264 207.739 58.6947 206.878 59.556C206.017 60.3947 205.586 61.664 205.586 63.364V72H200.282V53.708H205.348V56.122ZM222.07 53.436C224.903 53.436 227.079 54.116 228.598 55.476C230.117 56.8133 230.876 58.842 230.876 61.562V72H225.912V69.722C224.915 71.422 223.056 72.272 220.336 72.272C218.931 72.272 217.707 72.034 216.664 71.558C215.644 71.082 214.862 70.4247 214.318 69.586C213.774 68.7473 213.502 67.7953 213.502 66.73C213.502 65.03 214.137 63.6927 215.406 62.718C216.698 61.7433 218.681 61.256 221.356 61.256H225.572C225.572 60.1 225.221 59.216 224.518 58.604C223.815 57.9693 222.761 57.652 221.356 57.652C220.381 57.652 219.418 57.8107 218.466 58.128C217.537 58.4227 216.743 58.8307 216.086 59.352L214.182 55.646C215.179 54.9433 216.369 54.3993 217.752 54.014C219.157 53.6287 220.597 53.436 222.07 53.436ZM221.662 68.702C222.569 68.702 223.373 68.498 224.076 68.09C224.779 67.6593 225.277 67.036 225.572 66.22V64.35H221.934C219.758 64.35 218.67 65.064 218.67 66.492C218.67 67.172 218.931 67.716 219.452 68.124C219.996 68.5093 220.733 68.702 221.662 68.702ZM235.677 53.708H240.981V72H235.677V53.708ZM238.329 51.158C237.354 51.158 236.561 50.8747 235.949 50.308C235.337 49.7413 235.031 49.0387 235.031 48.2C235.031 47.3613 235.337 46.6587 235.949 46.092C236.561 45.5253 237.354 45.242 238.329 45.242C239.303 45.242 240.097 45.514 240.709 46.058C241.321 46.602 241.627 47.282 241.627 48.098C241.627 48.982 241.321 49.7187 240.709 50.308C240.097 50.8747 239.303 51.158 238.329 51.158Z" fill="black"/>
<defs>
<clipPath id="clip0">
<rect width="84" height="82" fill="white" transform="translate(0 4)"/>
</clipPath>
</defs>
</svg>
