<svg width="70" height="70" viewBox="0 0 70 70" fill="none" xmlns="http://www.w3.org/2000/svg">
<g clip-path="url(#clip0)">
<path d="M16.9167 59.5001C13.695 59.5001 11.0833 62.1118 11.0833 65.3335H64.75C64.75 62.1118 62.1383 59.5001 58.9167 59.5001H16.9167Z" fill="#03242C"/>
<path d="M7.58331 68.8334C7.58331 69.4777 8.10565 70.0001 8.74998 70.0001H67.0833C67.7277 70.0001 68.25 69.4777 68.25 68.8334C68.25 68.1891 67.7277 67.6667 67.0833 67.6667H8.74998C8.10565 67.6667 7.58331 68.1891 7.58331 68.8334Z" fill="#03242C"/>
<path d="M36.75 44.3334V46.6667C36.75 47.311 37.2723 47.8334 37.9167 47.8334H58.9167C59.561 47.8334 60.0833 47.311 60.0833 46.6667V44.3334C60.0833 43.689 59.561 43.1667 58.9167 43.1667C57.3533 43.1667 57.6567 43.1667 57.6333 43.05C57.2133 38.8967 55.0783 34.6734 51.4967 32.6084C53.3139 31.6676 54.839 30.2474 55.9067 28.5017V28.4434C58.2891 24.5516 58.3205 19.6605 55.9883 15.7384C54.9642 13.9912 53.4841 12.5556 51.7067 11.585C55.2067 9.46171 57.19 5.28505 57.54 1.28338C57.6044 0.639048 57.1343 0.0644804 56.49 4.71403e-05C55.8457 -0.0643861 55.2711 0.405715 55.2067 1.05005C55.1148 2.28489 54.8558 3.50155 54.4367 4.66671H42.3967C41.9377 3.50719 41.6394 2.29037 41.51 1.05005C41.4456 0.405715 40.871 -0.0643861 40.2267 4.71403e-05C39.5823 0.0644804 39.1122 0.639048 39.1767 1.28338C39.4617 5.42317 41.6066 9.21104 45.01 11.585C42.1806 13.2302 40.1376 15.9506 39.3464 19.1264C38.5552 22.3022 39.0832 25.6631 40.81 28.4434V28.5134C41.9025 30.2967 43.4754 31.7362 45.3483 32.6667C43.3518 33.8557 41.7523 35.6095 40.7517 37.7067C39.9052 39.4158 39.383 41.2671 39.2117 43.1667H37.9167C37.2723 43.1667 36.75 43.689 36.75 44.3334ZM43.6567 7.00005H53.1883C52.1016 8.73185 50.3949 9.98368 48.4167 10.5C46.4406 9.98535 44.7371 8.73275 43.6567 7.00005ZM48.4167 12.8334C50.0414 13.1572 51.5277 13.9716 52.675 15.1667H44.1583C45.3056 13.9716 46.7919 13.1572 48.4167 12.8334ZM42.49 17.5H54.3433C54.9125 18.5911 55.2763 19.7775 55.4167 21H41.475C41.5971 19.7813 41.9411 18.5951 42.49 17.5ZM42.6417 26.8334C42.0347 25.7511 41.6388 24.5634 41.475 23.3334H55.3233C55.1595 24.5634 54.7636 25.7511 54.1567 26.8334H42.6417ZM44.4383 29.1667H52.395C51.2917 30.2141 49.9109 30.9227 48.4167 31.2084C46.9224 30.9227 45.5416 30.2141 44.4383 29.1667ZM48.4167 33.8334C50.3934 34.353 52.099 35.604 53.1883 37.3334H43.645C44.7326 35.6024 46.4389 34.3508 48.4167 33.8334ZM42.3967 39.6667H54.4367C54.877 40.7904 55.1673 41.9672 55.3 43.1667H41.5333C41.6661 41.9672 41.9563 40.7904 42.3967 39.6667Z" fill="#03242C"/>
<path d="M11.4333 21.2451C6.58145 30.9904 8.40506 42.7363 15.9833 50.5518C16.956 48.3476 18.4112 46.39 20.2417 44.8235C16.7024 40.6819 15.1396 35.2058 15.96 29.8201C14.8208 28.298 14.3606 26.3729 14.6883 24.5001L11.4333 21.2451Z" fill="#03242C"/>
<path d="M15.155 5.14502C14.9359 4.92416 14.6377 4.79993 14.3267 4.79993C14.0156 4.79993 13.7174 4.92416 13.4983 5.14502L6.89499 11.7484C6.67413 11.9674 6.5499 12.2656 6.5499 12.5767C6.5499 12.8878 6.67413 13.186 6.89499 13.405L15.575 22.085C17.0649 19.5693 19.9615 18.2446 22.839 18.7629C25.7165 19.2813 27.9688 21.5335 28.4871 24.411C29.0055 27.2885 27.6808 30.1851 25.165 31.675L26.6933 33.2034C26.9124 33.4242 27.2106 33.5485 27.5217 33.5485C27.8328 33.5485 28.1309 33.4242 28.35 33.2034C29.575 32.0367 28.455 33.2034 34.9533 26.6C35.1742 26.381 35.2984 26.0828 35.2984 25.7717C35.2984 25.4606 35.1742 25.1624 34.9533 24.9434L15.155 5.14502Z" fill="#03242C"/>
<path d="M6.55667 9.75336L11.5033 4.8067L7.385 0.688364C6.94734 0.250217 6.35346 0.00402832 5.73417 0.00402832C5.11488 0.00402832 4.52099 0.250217 4.08333 0.688364L2.43833 2.33336C2.00019 2.77102 1.754 3.36491 1.754 3.9842C1.754 4.60349 2.00019 5.19737 2.43833 5.63503L6.55667 9.75336Z" fill="#628A94"/>
<path d="M35.8633 29.1667L30.9167 34.1134L33.39 36.5867C33.8276 37.0249 34.4215 37.2711 35.0408 37.2711C35.6601 37.2711 36.254 37.0249 36.6917 36.5867L38.3367 35.0001C38.7748 34.5624 39.021 33.9685 39.021 33.3492C39.021 32.73 38.7748 32.1361 38.3367 31.6984L35.8633 29.1667Z" fill="#628A94"/>
<path d="M55.4167 50.1666H41.4167C40.7723 50.1666 40.25 50.689 40.25 51.3333V56C40.25 56.6443 40.7723 57.1666 41.4167 57.1666H55.4167C56.061 57.1666 56.5833 56.6443 56.5833 56V51.3333C56.5833 50.689 56.061 50.1666 55.4167 50.1666Z" fill="#628A94"/>
<path d="M30.9167 47.8334C30.9189 46.5334 30.2708 45.3184 29.1899 44.5962C28.109 43.874 26.7384 43.7403 25.5383 44.24C20.3176 46.4123 16.9163 51.512 16.9167 57.1667H30.9167L30.9167 47.8334ZM23.9167 52.5C23.2723 52.5 22.75 51.9777 22.75 51.3334C22.75 50.689 23.2723 50.1667 23.9167 50.1667C24.561 50.1667 25.0833 50.689 25.0833 51.3334C25.0833 51.9777 24.561 52.5 23.9167 52.5Z" fill="#03242C"/>
<path d="M21.5833 30.3335C24.1607 30.3335 26.25 28.2441 26.25 25.6668C26.25 23.0895 24.1607 21.0001 21.5833 21.0001C19.006 21.0001 16.9167 23.0895 16.9167 25.6668C16.9167 28.2441 19.006 30.3335 21.5833 30.3335Z" fill="#03242C"/>
</g>
<defs>
<clipPath id="clip0">
<rect width="70" height="70" fill="white"/>
</clipPath>
</defs>
</svg>
