<svg width="129" height="132" viewBox="0 0 129 132" fill="none" xmlns="http://www.w3.org/2000/svg">
<path d="M114.268 38.4912C106.67 38.4912 100.633 44.8668 100.633 52.4436C100.633 53.0376 100.633 53.6448 100.826 54.2388L91.2804 58.2252C88.5585 50.0544 82.7148 43.6788 75.1167 39.8904L77.2581 33.3168C77.2581 33.3168 77.2581 33.3168 77.4516 33.3168C83.8758 33.3168 89.139 27.5352 89.139 20.7636C89.139 13.992 83.8758 8.21039 77.4516 8.21039C71.0274 8.21039 65.7642 13.596 65.7642 20.1696C65.7642 23.76 67.3251 27.1524 70.047 29.3436L67.7121 36.696C57.7791 34.7028 48.2331 37.686 41.2155 44.2728L36.1458 38.4912C37.7067 35.904 38.4807 33.1056 38.4807 30.1224C38.4807 21.3576 31.4631 14.1768 22.8975 14.1768C14.3319 14.1768 7.32721 21.3576 7.32721 30.1224C7.32721 38.8872 14.3448 46.068 22.9104 46.068C25.6323 46.068 28.1736 45.276 30.5085 44.0748L35.9652 50.2524C32.4564 55.44 30.702 61.6176 30.702 67.9932C30.702 72.5736 31.6695 77.1672 33.4239 81.3516L22.9104 85.536C20.769 82.1436 17.0667 79.9524 12.9774 79.9524C6.55321 79.9524 1.29001 85.338 1.29001 91.9116C1.29001 98.4852 6.55321 103.871 12.9774 103.871C18.8211 103.871 23.8908 99.2904 24.4713 93.5088L37.5261 88.1232C43.3698 95.502 52.3353 99.8844 61.6749 99.8844C66.5511 99.8844 71.6079 98.6832 75.8907 96.294L87.7716 109.85C87.1911 111.052 86.9976 112.438 86.9976 113.837C86.9976 119.42 91.2804 123.803 96.7371 123.803C102.194 123.803 106.477 119.42 106.477 113.837C106.477 108.253 102.194 103.871 96.7371 103.871C95.5632 103.871 94.5957 104.069 93.4218 104.465L82.3149 91.7136C88.9326 85.734 92.8284 77.1672 92.8284 67.9932C92.8284 67.2012 92.8284 66.396 92.6349 65.604L103.742 61.0236C106.27 64.218 110.166 66.0132 114.062 66.0132C121.66 66.0132 127.697 59.8356 127.697 52.0608C127.71 44.2728 121.866 38.4912 114.268 38.4912ZM20.769 91.1196V92.5188C20.769 96.9012 17.2602 100.492 12.9774 100.492C8.69461 100.492 5.18581 96.9012 5.18581 92.5188C5.18581 88.1364 8.69461 84.546 12.9774 84.546C16.0992 84.546 19.0146 86.5392 20.1885 89.3244L20.769 91.1196ZM91.8738 111.052L92.6478 109.85L94.0152 109.058C94.9956 108.464 95.9631 108.266 96.7371 108.266C100.052 108.266 102.581 110.854 102.581 114.246C102.581 117.638 100.052 120.226 96.7371 120.226C93.4218 120.226 90.8934 117.638 90.8934 114.246C90.8934 113.243 91.2804 112.042 91.8738 111.052ZM69.4665 20.5524C69.4665 16.17 72.9753 12.5796 77.2581 12.5796C81.5409 12.5796 85.0497 16.17 85.0497 20.5524C85.0497 24.9348 81.5409 28.5252 77.2581 28.5252C76.8711 28.5252 76.4841 28.5252 76.0842 28.3272L74.3298 28.1292L72.9624 27.3372C70.8339 25.74 69.4665 23.3508 69.4665 20.5524ZM30.8955 39.0852L29.5281 40.2864C27.5802 41.6856 25.2453 42.4776 22.704 42.4776C16.2798 42.4776 11.0166 37.092 11.0166 30.5184C11.0166 23.9448 16.2798 18.5592 22.704 18.5592C29.1282 18.5592 34.3914 23.9448 34.3914 30.5184C34.3914 33.1056 33.6174 35.706 31.863 37.8972L30.8955 39.0852ZM78.432 90.3144L76.8711 91.7136L79.593 94.908L76.8711 91.7136L75.5037 92.5056C71.4144 94.8948 66.5382 96.294 61.8684 96.294C53.0964 96.294 45.1113 92.1096 39.861 84.9288L38.8806 83.7276L37.9002 81.7344C35.7588 77.748 34.5849 72.9696 34.5849 68.376C34.5849 62.3964 36.5328 56.6148 40.0416 51.6384L41.022 50.2392L34.4043 42.6624L41.022 50.2392L42.3894 48.642C47.6526 43.2564 54.4638 40.2732 61.8684 40.2732C64.0098 40.2732 66.3447 40.4712 68.4861 41.0652L70.2405 41.4612L73.1688 31.8912L70.2405 41.4612L71.9949 42.0552C79.98 45.2496 86.0172 52.2192 88.1586 60.786L88.7391 62.9772L88.9326 64.5744C89.1261 65.9736 89.1261 66.9636 89.1261 67.9668C88.9455 76.9692 85.0497 85.14 78.432 90.3144ZM114.268 62.4096C110.953 62.4096 108.038 60.8124 106.09 58.0272L105.316 56.628L104.929 55.0308C104.735 54.2388 104.542 53.4336 104.542 52.6416C104.542 47.058 108.824 42.6756 114.281 42.6756C119.738 42.6756 124.021 47.058 124.021 52.6416C124.008 58.2252 119.725 62.4096 114.268 62.4096Z" fill="#03242C"/>
<path d="M39.2805 65.406C39.2805 69.8148 42.7635 73.3788 47.0721 73.3788C51.3807 73.3788 54.8637 69.8148 54.8637 65.406C54.8637 60.9972 51.3807 57.4332 47.0721 57.4332C42.7635 57.4332 39.2805 60.9972 39.2805 65.406Z" fill="#628A94"/>
<path d="M60.7074 79.3584C60.7074 81.5628 62.4489 83.3448 64.6032 83.3448C66.7575 83.3448 68.499 81.5628 68.499 79.3584C68.499 77.154 66.7575 75.372 64.6032 75.372C62.4489 75.372 60.7074 77.154 60.7074 79.3584Z" fill="#628A94"/>
<path d="M60.7074 63.4128C60.7074 66.7128 63.3261 69.3924 66.5511 69.3924C69.7761 69.3924 72.3948 66.7128 72.3948 63.4128C72.3948 60.1128 69.7761 57.4332 66.5511 57.4332C63.3132 57.4332 60.7074 60.1128 60.7074 63.4128Z" fill="#628A94"/>
</svg>
