<svg width="111" height="123" viewBox="0 0 111 123" fill="none" xmlns="http://www.w3.org/2000/svg">
<path d="M61.5 87C57.5 88 58 86 57 85C55 84.5 52 81.5 51.5 79C50 80.5 47 83.5 47 90C49 96.5 49.5 96.5 51.5 98.5C47 105 54.5 112 53.5 122C55.6796 122.124 59 122 59 122C58.5 113 63.5 104.5 61.5 98.5C63.9 97.7 64.8333 93.1667 65 91C65.1538 89 62.5 86.75 61.5 87Z" fill="#628A94"/>
<path d="M29.5 86C29.5 86 26.7011 86.7321 25.5 88C25.5 94.5 30.5 94 29.5 99C29.5 100.5 32.5 99.5 33.5 99C35.5 92.5 28.4534 94.5 29.5 86Z" fill="#628A94"/>
<path d="M6.49999 78.5C3.49999 88 16.5 91 22.5 89.5C23.5 88.5 29.1717 87.778 31.5 84.5C37 77.5 34 68.5 29.5 68.5C31.5 64.5 27 58 25.5 56.5C28.5 50 23.5 46 23.5 46C23.5 46 27 39.5 21.5 34.5C19 33.5 15 31 13.5 28.5C11.7717 28.1815 9.50002 28 9.50002 28C9.50002 28 8.5 26.5 9.50002 25H16C16 26.5 19 30.5 23.5 31C24.5 33 25 36 33 35.5C38.5 37.5 42 38 48 35.5C53 37.5 61.5 36.5 64 32.5C67.5 33.5 75 33.5 77.5 30C87 32.2721 93.5 25 96 21C96 21 97.4609 22.0472 98 22.5C96 26.5 91.5 31.5 86 32.5C85 33.5 83.5 40 86.5 42.5C84 46 85 51.5 88 54C88.4499 58.5 85 61 88 64.5C86.5 65 85 68 86.5 70.5C85 71.5 84 73.5 83.5 74.5C81.5 74.5 78 75.5 78 75.5C78 75.5 73.5 73 71.5 75.5C71.5 73 65 70.5 61.5 73C43 73 53.5 88.5 61.5 84.5C64.521 89.8852 71.5 91 76.5 89.5C81.5 91.5 84.5 92 92 87C96.5 87 98 84.5 100 78.5C104.5 76.5 106 68.5 103.5 64.5C106 62 106 56.5 101.5 52.5C103.5 48 103.5 46 101.5 42.5C103.5 38.5 103.5 35.5 103.5 31C106 26.5 107 26 106 20C112 15.5 113.5 7.99999 103.5 4.49999C103.5 -1.00001 88 -3.00001 86.5 7.99999C81 6.99999 74.5 9.49998 73.5 15.5C67.5 13 61.5 15.5 59.5 20C57.5 17 51 15.5 47 20C43.5 15.5 38.5 15.5 33 18.5C31.5 15.5 29.5 13 23.5 13C22.5 10.5 18.5 0.999986 6.49999 10.5C3.49999 10.5 -4.50001 18.5 3.49999 25C-1.00001 31 3.49999 35.5 3.49999 35.5C3.49999 35.5 -2.00001 42.5 3.49999 48C-0.500005 52.5 -0.500005 59.5 3.49999 62C-1.49998 67 1.00001 77 6.49999 78.5Z" fill="#03242C"/>
<path d="M12.5 33C12.5 55 11.5 69 21 83C24 84.5 25 82.5 23.5 81C12.5 67.5 16 43.5 15.5 35C14.5 34.5 14 33.5 12.5 33Z" fill="white"/>
<path d="M12.5 12C10.5 12.4 10 12 10 14.5C28.5 22.5 29 29 52.5 29C90 25.5 91 10.3749 100.5 8.00001C101 6.00001 100.5 5 100 5C90 5 91.5 21.5 52.5 25.5C43 25.5 34 23 30.5 21C26 19 18.5 13 12.5 12Z" fill="white"/>
<path d="M93.5 33C95 33 97 29.5 97 29.5C97.7691 29.8077 98.1072 30.2706 98.5 31C97.5 32.5 96.5 34.5 97 36C96 39.5 100.5 65.5819 99 69C98.5 73 94 78 91.5 80C87 83.6 82 85 76 85C71 84 66.5 82.5 66 81C66.4859 79.5545 66.8441 78.9948 68 78C68.0823 78.0659 68.1706 78.1328 68.2645 78.2005C71.0251 80.19 78.714 82.8683 85 79C89.875 76 92.5 75 95 69C97.5 63 91.5 38.5 93.5 33Z" fill="white"/>
<path d="M21 83L20.5862 83.2808L20.6596 83.3888L20.7764 83.4472L21 83ZM12.5 33L12.6581 32.5257C12.5056 32.4748 12.338 32.5004 12.2076 32.5944C12.0772 32.6884 12 32.8393 12 33H12.5ZM15.5 35L15.9991 34.9707L15.9821 34.6821L15.7236 34.5528L15.5 35ZM23.5 81L23.1124 81.3158L23.1284 81.3356L23.1464 81.3536L23.5 81ZM10 14.5H9.5V14.8285L9.80154 14.9589L10 14.5ZM12.5 12L12.5822 11.5068L12.4918 11.4918L12.4019 11.5097L12.5 12ZM52.5 25.5V26H52.5256L52.551 25.9974L52.5 25.5ZM100.5 8.00001L100.621 8.48509L100.912 8.41233L100.985 8.12128L100.5 8.00001ZM52.5 29V29.5H52.5233L52.5464 29.4979L52.5 29ZM30.5 21L30.748 20.5659L30.7261 20.5534L30.703 20.5431L30.5 21ZM97 29.5L97.1857 29.0358L96.7817 28.8742L96.5659 29.2519L97 29.5ZM93.5 33V32.5H93.1498L93.0301 32.8291L93.5 33ZM85 79L84.7379 78.5742L85 79ZM66 81L65.526 80.8407L65.4727 80.9993L65.5256 81.1581L66 81ZM76 85L75.9019 85.4903L75.9505 85.5H76V85ZM91.5 80L91.1876 79.6096L91.5 80ZM99 69L98.5421 68.7991L98.5129 68.8658L98.5038 68.938L99 69ZM97 36L97.4807 36.1374L97.5232 35.9886L97.4743 35.8419L97 36ZM98.5 31L98.916 31.2774L99.0826 31.0274L98.9402 30.763L98.5 31ZM68 78L68.3123 77.6096L67.9883 77.3504L67.6738 77.621L68 78ZM21.4137 82.7193C12.0197 68.8754 13 55.063 13 33H12C12 54.937 10.9803 69.1246 20.5862 83.2808L21.4137 82.7193ZM12.3419 33.4744C13.0044 33.6952 13.4472 34.024 13.8621 34.3796C14.2612 34.7218 14.7045 35.1613 15.2764 35.4472L15.7236 34.5528C15.2955 34.3387 14.9887 34.0283 14.5129 33.6204C14.0528 33.226 13.4956 32.8048 12.6581 32.5257L12.3419 33.4744ZM15.0008 35.0294C15.1242 37.1273 15.0006 40.1871 14.9142 43.8633C14.8282 47.5231 14.7808 51.7596 15.0635 56.1571C15.6278 64.9349 17.5109 74.4414 23.1124 81.3158L23.8876 80.6842C18.489 74.0587 16.6222 64.8151 16.0614 56.0929C15.7816 51.7404 15.828 47.5394 15.9139 43.8868C15.9994 40.2504 16.1257 37.1228 15.9991 34.9707L15.0008 35.0294ZM23.1464 81.3536C23.8161 82.0232 23.7417 82.5895 23.5612 82.7958C23.4607 82.9107 23.2547 83.0313 22.8672 83.0313C22.4762 83.0313 21.9288 82.9054 21.2236 82.5528L20.7764 83.4472C21.5711 83.8446 22.2738 84.0313 22.8672 84.0313C23.464 84.0313 23.9768 83.8394 24.3138 83.4543C25.0083 82.6606 24.6839 81.4768 23.8535 80.6465L23.1464 81.3536ZM10.5 14.5C10.5 13.8809 10.5321 13.4879 10.5951 13.2294C10.6538 12.9887 10.7269 12.914 10.7867 12.8721C10.8753 12.8101 11.0262 12.7577 11.3524 12.7002C11.6388 12.6498 12.1003 12.5899 12.598 12.4903L12.4019 11.5097C11.8997 11.6102 11.5487 11.6503 11.1788 11.7154C10.8488 11.7736 10.4996 11.8524 10.2133 12.0529C9.89805 12.2735 9.72115 12.5926 9.62361 12.9925C9.53041 13.3746 9.5 13.8692 9.5 14.5H10.5ZM52.551 25.9974C72.1301 23.9893 81.6009 18.835 87.4384 14.1396C88.8923 12.9701 90.1152 11.8338 91.2047 10.7932C92.3 9.74717 93.2452 8.8133 94.1694 8.02003C96.0006 6.44824 97.6694 5.5 100 5.5V4.5C97.3306 4.5 95.4369 5.61426 93.5181 7.26122C92.5673 8.07733 91.5906 9.0419 90.514 10.0701C89.4317 11.1037 88.2327 12.2174 86.8116 13.3604C81.1491 17.915 71.8699 23.0107 52.449 25.0026L52.551 25.9974ZM100 5.5C99.9459 5.5 99.9429 5.47091 99.9831 5.51675C100.026 5.56526 100.09 5.67323 100.14 5.87127C100.239 6.26622 100.253 6.9283 100.015 7.87875L100.985 8.12128C101.247 7.07173 101.261 6.23381 101.11 5.62874C101.035 5.32678 100.912 5.05975 100.736 4.85825C100.557 4.65409 100.304 4.5 100 4.5V5.5ZM100.379 7.51494C97.879 8.13985 95.959 9.60177 93.9319 11.4187C91.8904 13.2485 89.7402 15.4367 86.7033 17.6757C80.6646 22.1276 71.1308 26.759 52.4535 28.5022L52.5464 29.4979C71.3691 27.7411 81.0853 23.0599 87.2967 18.4806C90.3848 16.2039 92.6096 13.9468 94.5993 12.1633C96.6035 10.367 98.3709 9.04765 100.621 8.48509L100.379 7.51494ZM52.5 28.5C40.8056 28.5 34.8848 26.8844 29.5944 24.3007C26.9271 22.9981 24.4235 21.4519 21.3899 19.7072C18.3647 17.9674 14.8469 16.0512 10.1985 14.0411L9.80154 14.9589C14.4031 16.9488 17.8852 18.8452 20.8913 20.5741C23.889 22.2981 26.4478 23.8769 29.1556 25.1993C34.6151 27.8656 40.6943 29.5 52.5 29.5V28.5ZM12.4178 12.4932C15.3163 12.9763 18.6193 14.6797 21.809 16.556C24.9525 18.4051 28.0128 20.4417 30.2969 21.4569L30.703 20.5431C28.4872 19.5583 25.5475 17.5949 22.316 15.694C19.1307 13.8203 15.6837 12.0237 12.5822 11.5068L12.4178 12.4932ZM30.2519 21.4341C32.0636 22.4694 35.2432 23.6078 39.1398 24.4877C43.0461 25.3698 47.7082 26 52.5 26V25C47.7918 25 43.2039 24.3802 39.3601 23.5123C35.5067 22.6422 32.4363 21.5306 30.748 20.5659L30.2519 21.4341ZM97 29.5C96.5659 29.2519 96.5659 29.2519 96.5659 29.2518C96.5659 29.2519 96.5659 29.2518 96.5659 29.2518C96.5659 29.2518 96.5659 29.2519 96.5658 29.252C96.5657 29.2523 96.5654 29.2527 96.565 29.2534C96.5643 29.2547 96.5631 29.2568 96.5614 29.2597C96.558 29.2656 96.5527 29.2746 96.5457 29.2866C96.5316 29.3106 96.5105 29.3465 96.4827 29.3925C96.4273 29.4846 96.3459 29.6171 96.2435 29.7765C96.0379 30.0962 95.7503 30.5198 95.4193 30.9411C95.086 31.3653 94.7208 31.7716 94.3618 32.0672C93.987 32.3759 93.6955 32.5 93.5 32.5V33.5C94.0545 33.5 94.5755 33.1867 94.9975 32.8391C95.4354 32.4785 95.8515 32.0097 96.2056 31.5589C96.5621 31.1052 96.8683 30.6538 97.0846 30.3173C97.1931 30.1485 97.2797 30.0076 97.3395 29.9083C97.3694 29.8586 97.3926 29.8193 97.4086 29.792C97.4166 29.7784 97.4227 29.7678 97.427 29.7604C97.4292 29.7567 97.4308 29.7538 97.432 29.7517C97.4326 29.7507 97.4331 29.7499 97.4334 29.7493C97.4336 29.749 97.4337 29.7487 97.4339 29.7485C97.4339 29.7484 97.434 29.7483 97.434 29.7483C97.4341 29.7482 97.4341 29.7481 97 29.5ZM93.0301 32.8291C92.7518 33.5944 92.6255 34.6445 92.5929 35.8666C92.5601 37.099 92.6219 38.5497 92.7436 40.1397C92.9869 43.3185 93.4733 47.0988 93.9413 50.874C94.4103 54.6577 94.8612 58.4381 95.0398 61.645C95.1291 63.2481 95.1496 64.6971 95.0723 65.9246C94.9944 67.1603 94.8191 68.1341 94.5384 68.8077L95.4615 69.1923C95.8058 68.366 95.99 67.2616 96.0703 65.9875C96.1511 64.7052 96.1287 63.2129 96.0383 61.5894C95.8575 58.3432 95.4021 54.5298 94.9337 50.751C94.4642 46.9637 93.9818 43.2127 93.7407 40.0634C93.6202 38.4894 93.561 37.0769 93.5926 35.8932C93.6244 34.6993 93.7482 33.7806 93.9699 33.1709L93.0301 32.8291ZM94.5384 68.8077C93.3113 71.7528 92.0705 73.4338 90.5621 74.748C89.0254 76.087 87.2125 77.0514 84.7379 78.5742L85.262 79.4258C87.6624 77.9487 89.5996 76.913 91.2191 75.502C92.867 74.0662 94.1886 72.2472 95.4615 69.1923L94.5384 68.8077ZM68.1738 77.621C68.0954 77.6885 68.0182 77.7541 67.942 77.8185L68.5871 78.5826C68.665 78.5168 68.7447 78.4491 68.8261 78.379L68.1738 77.621ZM67.942 77.8185C66.9238 78.6782 66.0302 79.3412 65.526 80.8407L66.4739 81.1593C66.8745 79.9676 67.5306 79.4747 68.5871 78.5826L67.942 77.8185ZM65.5256 81.1581C65.7072 81.7029 66.2083 82.1569 66.7996 82.5376C67.4111 82.9313 68.2127 83.3051 69.1352 83.655C70.9831 84.3559 73.3874 84.9874 75.9019 85.4903L76.098 84.5097C73.6126 84.0126 71.2669 83.3941 69.4898 82.72C68.5998 82.3824 67.8701 82.0375 67.341 81.6968C66.7916 81.3431 66.5427 81.0471 66.4743 80.8419L65.5256 81.1581ZM76 85.5C82.0877 85.5 87.2055 84.0759 91.8123 80.3904L91.1876 79.6096C86.7945 83.1241 81.9122 84.5 76 84.5V85.5ZM91.8123 80.3904C93.0973 79.3625 94.8763 77.5816 96.4 75.55C97.9143 73.5309 99.2295 71.1947 99.4961 69.062L98.5038 68.938C98.2704 70.8053 97.0857 72.9691 95.6 74.95C94.1236 76.9185 92.4027 78.6376 91.1876 79.6096L91.8123 80.3904ZM99.4578 69.2009C99.6903 68.6713 99.7813 67.7953 99.8036 66.7549C99.8265 65.6867 99.7766 64.3573 99.6786 62.8612C99.4825 59.868 99.0906 56.1673 98.6845 52.476C98.2778 48.7791 97.8568 45.0924 97.5997 42.1092C97.4711 40.6176 97.3843 39.3104 97.3602 38.2711C97.3356 37.2091 97.3795 36.4917 97.4807 36.1374L96.5192 35.8626C96.3705 36.3833 96.3362 37.2466 96.3605 38.2942C96.3852 39.3645 96.4742 40.6959 96.6034 42.1951C96.8619 45.1935 97.2847 48.897 97.6905 52.5854C98.0969 56.2794 98.4863 59.9588 98.6807 62.9266C98.778 64.4111 98.8258 65.7075 98.8038 66.7335C98.7812 67.7874 98.6847 68.4742 98.5421 68.7991L99.4578 69.2009ZM97.4743 35.8419C97.2757 35.2461 97.3618 34.4985 97.6583 33.6682C97.9516 32.847 98.4274 32.0103 98.916 31.2774L98.084 30.7227C97.5726 31.4897 97.0483 32.403 96.7166 33.3318C96.3881 34.2515 96.2242 35.2539 96.5256 36.1581L97.4743 35.8419ZM98.9402 30.763C98.7391 30.3895 98.5317 30.0444 98.2561 29.7501C97.9727 29.4474 97.6332 29.2148 97.1857 29.0358L96.8143 29.9643C97.136 30.0929 97.3501 30.2456 97.5262 30.4336C97.7101 30.63 97.8681 30.8811 98.0597 31.2371L98.9402 30.763ZM84.7379 78.5742C81.7211 80.4307 78.3538 80.7253 75.3807 80.3019C72.3999 79.8775 69.8653 78.7379 68.5569 77.7949L67.9722 78.6062C69.4243 79.6527 72.1146 80.8469 75.2398 81.2919C78.3728 81.7381 81.9929 81.4376 85.262 79.4258L84.7379 78.5742ZM68.5569 77.7949C68.4691 77.7317 68.3876 77.6698 68.3123 77.6096L67.6876 78.3904C67.777 78.462 67.872 78.5339 67.9722 78.6062L68.5569 77.7949ZM67.6738 77.621C67.0818 78.1306 66.6637 78.5541 66.3319 79.0549C66.001 79.5544 65.7735 80.1046 65.526 80.8407L66.4739 81.1593C66.7124 80.4498 66.907 79.9975 67.1656 79.6071C67.4234 79.218 67.7623 78.8643 68.3261 78.379L67.6738 77.621Z" fill="#03242C"/>
</svg>
