<svg width="70" height="70" viewBox="0 0 70 70" fill="none" xmlns="http://www.w3.org/2000/svg">
<g clip-path="url(#clip0)">
<path d="M35.8334 9.76716L36.5114 10.1389C37.728 10.8057 38.5675 11.9664 38.8148 13.3233L39.415 16.6184C39.4456 16.7857 39.5846 16.9119 39.7541 16.926C39.7646 16.9269 39.7752 16.9274 39.7856 16.9274C39.9429 16.9274 40.0852 16.8291 40.1397 16.6791L43.6922 6.8453C43.9971 6.00157 43.9554 5.08965 43.5742 4.27739C43.1931 3.46528 42.5185 2.85025 41.6749 2.54553C40.8467 2.24622 39.9045 2.28973 39.1068 2.66387C38.2947 3.04493 37.6799 3.71957 37.3754 4.56285L35.6603 9.30917C35.5974 9.48366 35.6707 9.67803 35.8334 9.76716Z" fill="#628A94"/>
<path d="M42.1896 14.9114C42.2389 15.0052 42.3258 15.0737 42.4284 15.1001L43.3893 15.3483C44.5221 15.6407 45.4912 16.3532 46.1181 17.3538L47.1031 18.9256C47.1723 19.0359 47.2934 19.102 47.4218 19.102C47.4352 19.102 47.4485 19.1013 47.462 19.0999C47.6052 19.0844 47.7272 18.989 47.7762 18.8535L52.9626 4.49691C53.2675 3.65319 53.2257 2.74127 52.8447 1.92901C52.464 1.11705 51.7892 0.501874 50.9453 0.196845C50.1171 -0.102463 49.174 -0.0588013 48.3776 0.315183C47.5652 0.696395 46.9503 1.37089 46.6457 2.21431L42.1687 14.6073C42.1324 14.7076 42.1403 14.8178 42.1896 14.9114Z" fill="#628A94"/>
<path d="M45.4567 20.8211C45.4567 18.9692 43.9501 17.4626 42.0983 17.4626C40.2463 17.4626 38.7396 18.9692 38.7396 20.8211V33.8296H37.5352V15.1973C37.5352 13.3455 36.0287 11.839 34.1767 11.839C32.325 11.839 30.8183 13.3455 30.8183 15.1973V33.8294H29.6139V9.83944C29.6139 7.98758 28.1073 6.48096 26.2553 6.48096C24.4034 6.48096 22.8969 7.98758 22.8969 9.83944V33.8296H21.6925V15.1973C21.6925 13.3455 20.1858 11.839 18.3338 11.839C16.482 11.839 14.9753 13.3455 14.9753 15.1973V36.4615L11.1199 32.0095C10.4303 31.2133 9.58434 30.6984 8.73805 30.5599C8.58177 30.5343 8.42444 30.5214 8.27012 30.5214C7.56295 30.5214 6.90246 30.7829 6.30745 31.2987C4.63762 32.7446 4.39477 34.6067 5.56942 36.9998L14.9886 55.008L13.7438 69.5916C13.7348 69.6965 13.7704 69.8006 13.8413 69.8781C13.9129 69.9558 14.0134 69.9999 14.1188 69.9999H46.3753C46.4808 69.9999 46.5817 69.9555 46.6531 69.8777C46.7246 69.7995 46.7598 69.6955 46.7503 69.5903L45.4564 55.0705V20.8211H45.4567Z" fill="#03242C"/>
<path d="M62.9419 15.9082C62.1137 15.6092 61.171 15.6525 60.374 16.0267C59.5626 16.4074 58.9479 17.0815 58.6432 17.9243L54.2228 30.1604L53.0901 29.7509L59.4209 12.2272C60.0498 10.4857 59.1447 8.5569 57.4032 7.92772C57.0361 7.79508 56.6532 7.72778 56.2647 7.72778C54.8557 7.72778 53.5858 8.61773 53.1045 9.94263L47.6627 25.0058C47.6478 25.0467 47.6404 25.0901 47.6404 25.1337V53.9058C47.6404 53.917 47.6409 53.928 47.6419 53.9391L48.7053 65.9122C48.7211 66.0927 48.864 66.2362 49.0445 66.2537C49.0566 66.2547 49.0686 66.2553 49.0804 66.2553C49.2466 66.2553 49.3955 66.1454 49.4418 65.9825L53.3259 52.4131L64.9602 20.2076C65.589 18.4666 64.6838 16.5376 62.9419 15.9082Z" fill="#628A94"/>
</g>
<defs>
<clipPath id="clip0">
<rect width="70" height="70" fill="white"/>
</clipPath>
</defs>
</svg>
