<svg width="71" height="71" viewBox="0 0 71 71" fill="none" xmlns="http://www.w3.org/2000/svg">
<path d="M42.1021 42.7888C42.1021 35.5458 36.2098 29.6526 28.9694 29.6526V27.4394C37.4326 27.4376 44.3189 34.323 44.3189 42.7844L42.1021 42.7888ZM40.4897 42.7844C40.4853 36.4368 35.3197 31.2668 28.965 31.2668L28.9694 33.4853C34.0969 33.4853 38.2685 37.6596 38.2685 42.7844H40.4897ZM28.9668 35.2237L28.9703 37.4395C31.9174 37.436 34.3143 39.8346 34.3143 42.7835H36.5292C36.5337 38.6162 33.1411 35.2255 28.9668 35.2237ZM57.9059 28.5655H51.7083H50.8839C49.0478 28.5655 47.5623 30.051 47.5623 31.8888V32.2491C47.5623 34.0914 49.0478 35.5751 50.8839 35.5751H57.0842H57.9059C59.7393 35.5751 61.2292 34.0834 61.2292 32.2491L61.2257 31.8853C61.2292 30.0519 59.7393 28.5655 57.9059 28.5655ZM61.2292 23.5943V23.9634C61.2292 25.8004 59.7437 27.2868 57.9077 27.2868H57.0842H51.7074H50.8812C49.0514 27.2868 47.5614 25.8048 47.5614 23.9634V23.6032C47.5614 21.7645 49.0514 20.2781 50.8848 20.2781H51.7074V20.2736H53.5203V6.65996L23.243 6.65552V14.0884C26.1404 12.4618 28.6837 11.0499 29.9207 10.4092C33.8502 8.37176 36.1095 10.8565 35.4289 13.8053C34.9062 16.0806 31.0469 18.5867 26.9781 21.729C26.1741 22.3537 24.7685 23.2792 23.2439 24.2456V54.4085H53.5221V52.158H50.883C49.0487 52.158 47.5632 50.6663 47.5632 48.8365V48.4655C47.5632 46.6322 49.0452 45.1466 50.883 45.1466H51.7091H57.0859H57.9059C59.741 45.1466 61.2274 46.6286 61.231 48.4655L61.2274 48.8285C61.231 50.6663 59.741 52.1536 57.9015 52.1536H57.0815V52.158H56.439V57.9856C56.439 60.2911 54.5506 62.1821 52.2398 62.1821H24.5209C22.2101 62.1821 20.3199 60.2911 20.3199 57.9856V53.2087H15.2724C15.2724 53.2087 7.81463 53.1812 3.77074 47.0696C3.72725 47.0066 3.68555 46.9498 3.64206 46.8877C3.47257 46.6197 3.31816 46.3349 3.16375 46.0474C3.0333 45.8051 2.90463 45.546 2.77951 45.2824C2.66148 45.0322 2.54701 44.7881 2.43963 44.5219C2.22665 43.9841 2.04207 43.4206 1.8779 42.8154C1.83265 42.6353 1.79893 42.4409 1.75367 42.2546C1.63121 41.7319 1.53182 41.1835 1.45106 40.6093C1.42 40.3884 1.39161 40.1683 1.36587 39.9394C1.28689 39.1576 1.23099 38.3456 1.23099 37.4715C1.23099 27.6542 5.81798 23.4967 8.94873 22.209C8.96116 22.2011 14.7284 18.899 20.3199 15.7381V4.20097C20.3199 1.89017 22.2101 0 24.5209 0H52.2416C54.5497 0 56.4399 1.89106 56.4399 4.20097V20.2789H57.905C59.7437 20.2745 61.2292 21.7645 61.2292 23.5943ZM36.2825 57.982C36.2825 59.1481 37.2223 60.087 38.3812 60.087C39.5455 60.087 40.4844 59.1481 40.4844 57.982C40.4844 56.8195 39.5446 55.8816 38.3812 55.8816C37.2223 55.8816 36.2825 56.824 36.2825 57.982ZM43.3232 3.53453C43.3232 3.24967 43.0978 3.02427 42.8174 3.02427H33.9487C33.6682 3.02427 33.4393 3.24967 33.4393 3.53453C33.4393 3.81406 33.6682 4.04035 33.9487 4.04035H42.8174C43.096 4.04035 43.3232 3.81406 43.3232 3.53453ZM57.9059 36.8574H57.0842H50.8839C49.0523 36.8574 47.5623 38.3474 47.5623 40.1807V40.5446C47.5623 42.3824 49.0478 43.8688 50.8839 43.8688H51.7083H57.085H57.9068C59.7446 43.8688 61.2265 42.3824 61.2301 40.5446L61.2265 40.1807C61.2257 38.3474 59.7437 36.8574 57.9059 36.8574Z" fill="#03242C"/>
<path d="M42.1021 42.7888C42.1021 35.5458 36.2098 29.6526 28.9694 29.6526V27.4394C37.4326 27.4376 44.3189 34.323 44.3189 42.7844L42.1021 42.7888ZM40.4897 42.7844C40.4853 36.4368 35.3197 31.2668 28.965 31.2668L28.9694 33.4853C34.0969 33.4853 38.2685 37.6596 38.2685 42.7844H40.4897ZM28.9668 35.2237L28.9703 37.4396C31.9174 37.436 34.3143 39.8347 34.3143 42.7835H36.5292C36.5337 38.6163 33.1411 35.2255 28.9668 35.2237ZM57.9059 28.5655H51.7083H50.8839C49.0478 28.5655 47.5623 30.051 47.5623 31.8889V32.2491C47.5623 34.0914 49.0478 35.5751 50.8839 35.5751H57.0842H57.9059C59.7393 35.5751 61.2292 34.0834 61.2292 32.2491L61.2257 31.8853C61.2292 30.0519 59.7393 28.5655 57.9059 28.5655ZM61.2292 23.5943V23.9635C61.2292 25.8004 59.7437 27.2868 57.9077 27.2868H57.0842H51.7074H50.8812C49.0514 27.2868 47.5614 25.8048 47.5614 23.9635V23.6032C47.5614 21.7645 49.0514 20.2781 50.8848 20.2781H51.7074V20.2736L56.4399 20.279L33.4393 5.5L23.243 14.0884C26.1404 12.4618 28.6837 11.05 29.9207 10.4093C33.8502 8.37178 36.1095 10.8565 35.4289 13.8054C34.9062 16.0807 31.0469 18.5867 26.9781 21.729C26.1741 22.3537 24.7685 23.2793 23.2439 24.2457L23.243 53.2087L40.1623 52.6812L57.0815 52.1536L50.883 52.158C49.0487 52.158 47.5632 50.6663 47.5632 48.8365V48.4656C47.5632 46.6322 49.0452 45.1467 50.883 45.1467H51.7091H57.0859H57.9059C59.741 45.1467 61.2274 46.6286 61.231 48.4656L61.2274 48.8285C61.231 50.6663 59.741 52.1536 57.9015 52.1536H57.0815L40.1623 52.6812L23.243 53.2087H15.2724C15.2724 53.2087 7.81463 53.1812 3.77074 47.0697C3.72725 47.0067 3.68555 46.9499 3.64206 46.8877C3.47257 46.6198 3.31816 46.3349 3.16375 46.0474C3.0333 45.8051 2.90463 45.546 2.77951 45.2824C2.66148 45.0322 2.54701 44.7882 2.43963 44.5219C2.22665 43.9842 2.04207 43.4207 1.8779 42.8155C1.83265 42.6353 1.79893 42.441 1.75367 42.2546C1.63121 41.7319 1.53182 41.1835 1.45106 40.6094C1.42 40.3884 1.39161 40.1683 1.36587 39.9394C1.28689 39.1576 1.23099 38.3456 1.23099 37.4715C1.23099 27.6542 5.81798 23.4967 8.94873 22.2091C8.96116 22.2011 14.7284 18.899 20.3199 15.7381L23.243 14.0884L33.4393 5.5L56.4399 20.279H57.905C59.7437 20.2745 61.2292 21.7645 61.2292 23.5943ZM43.3232 3.53455C43.3232 3.24969 43.0978 3.02429 42.8174 3.02429H33.9487C33.6682 3.02429 33.4393 3.24969 33.4393 3.53455C33.4393 3.81408 33.6682 4.04037 33.9487 4.04037H42.8174C43.096 4.04037 43.3232 3.81408 43.3232 3.53455ZM57.9059 36.8574H57.0842H50.8839C49.0523 36.8574 47.5623 38.3474 47.5623 40.1808V40.5446C47.5623 42.3824 49.0478 43.8688 50.8839 43.8688H51.7083H57.085H57.9068C59.7446 43.8688 61.2265 42.3824 61.2301 40.5446L61.2265 40.1808C61.2257 38.3474 59.7437 36.8574 57.9059 36.8574Z" fill="#628A94"/>
</svg>
