<svg width="103" height="101" viewBox="0 0 103 101" fill="none" xmlns="http://www.w3.org/2000/svg">
<path d="M0 17V99.5H10.5V61.5C10.5 54.5 5 54.5 5 54.5V17L17 5.5L19.5 5.5L25.5 12C13 24.5 17 35 21.5 40.5C23 41.5 25 42 26.5 40.5C28 39 57.5 9 57.5 9C58 7.49999 58.9423 6.99999 57.5 5.5C46 -5 35.5 2.50001 29.5 9C27.5 7.16667 23.1 3.09999 21.5 1.49999C19.9 -0.100008 17 1.21593e-05 16 1.49999L0 17Z" fill="#03242C"/>
<path d="M100.07 65H21.0992C16.9669 65 16.9669 72.3684 21.0992 72.3684H35.7915L28.4453 86.6447V91.25H29.3636C29.8227 88.4868 31.6593 88.0263 33.4958 88.0263V91.25C29.3636 93 30.5 100 35.7915 100C41.083 100 42 92.5 37.628 91.25V88.0263C40.3829 88.0263 41.3011 89.4079 41.3011 91.25H77.5728C77.5728 88.6711 80.3277 88.0263 81.7051 88.0263V91.25C77.5728 92.6316 77.5728 100 83.5416 100C89.8289 100 89.5104 92.1711 85.8373 91.25V88.0263C88.7758 88.0263 89.8165 90.1754 89.9695 91.25H90.8878C90.7347 89.2544 90.5205 85.2632 90.8878 85.2632C91.2551 85.2632 86.1434 76.6667 83.5416 72.3684H100.07C104.203 72.3684 103.744 65 100.07 65Z" fill="#03242C"/>
<path d="M80.273 76.0372H41.0523C38.3159 76.0372 38.3159 81.737 41.0523 81.8284C52.6057 82.2145 80.273 81.8284 80.273 81.8284C83.0093 81.8284 82.0972 75.4581 80.273 76.0372Z" fill="#EEF1F1"/>
<circle cx="35.5" cy="95.5" r="5.5" fill="#628A94"/>
<circle cx="83.5" cy="95.5" r="5.5" fill="#628A94"/>
</svg>
